<svg xmlns="http://www.w3.org/2000/svg" viewBox="0 0 763.97 255.25"><defs><style>.cls-1{fill:#8d32c8;}.cls-2{fill:#fff;}.cls-3{fill:#61d695;}.cls-4{fill:#ee8c69;}.cls-5{fill:#ffcc5a;}</style></defs><g id="Layer_2" data-name="Layer 2"><g id="Layer_1-2" data-name="Layer 1"><circle class="cls-1" cx="127.63" cy="127.63" r="127.63"/><path class="cls-2" d="M55.77,51.33c-3.26,1.8-3.92,7.57-6.34,10s-8.18,3.08-10,6.34.36,5.31,3.1,7.28a12.62,12.62,0,0,0,11.86,1L70,91.52l4.83-4.83,4.83-4.83L64.07,66.29a12.62,12.62,0,0,0-1-11.86C61.08,51.69,59.05,49.52,55.77,51.33Z"/><path class="cls-3" d="M187,135.75s6.45-41.11,34.46-38.15C221.41,97.6,225.35,124,187,135.75Z"/><path class="cls-2" d="M348.22,190.27q-30,0-47.44-12.84l8.5-21.75a63.82,63.82,0,0,0,18.54,9.21,68.27,68.27,0,0,0,20.61,3.21q8.07,0,12.43-2.58t4.35-7.15a7,7,0,0,0-3.11-6.11q-3.11-2.17-11-4l-17.19-4.15q-15.33-3.1-22.48-10.35t-7.14-19.27A28,28,0,0,1,310,97.15a38.17,38.17,0,0,1,15.85-11.91q10.14-4.35,23.61-4.35a70.83,70.83,0,0,1,22,3.42,70,70,0,0,1,19.27,9.63L382,114.87a68.33,68.33,0,0,0-16.47-8.5,49.76,49.76,0,0,0-16.26-2.9q-7.67,0-12,2.7a8.35,8.35,0,0,0-4.35,7.45,6.79,6.79,0,0,0,2.59,5.6q2.59,2.07,9.22,3.73l17.61,3.93q16.15,3.74,23.41,11.19T393,158q0,14.93-11.91,23.62T348.22,190.27Z"/><path class="cls-2" d="M449.52,190.27a44.62,44.62,0,0,1-24.24-6.63,43.74,43.74,0,0,1-16.36-18.85q-5.81-12.22-5.8-28.59t5.9-28.89a46.51,46.51,0,0,1,16.37-19.48,42.66,42.66,0,0,1,24.13-6.94,40.62,40.62,0,0,1,22.37,6.22,31.12,31.12,0,0,1,13.26,16.78l-2.49,1.65v-22h30.87v105H482.66V167.07l2.49.41a30.15,30.15,0,0,1-13.26,16.78A41.69,41.69,0,0,1,449.52,190.27Zm9.11-23.82q11.4,0,17.71-7.87t6.32-22.79q0-14.91-6.32-22.89t-17.71-8q-11.38,0-17.92,8.29t-6.52,23q0,14.72,6.32,22.48T458.63,166.45Z"/><path class="cls-2" d="M531.13,233.36V113.62q0-7.45-.31-15t-1.34-15h29.41l2.28,20.3h-1.24a30.24,30.24,0,0,1,12.94-16.78,40.52,40.52,0,0,1,22.48-6.22,42.66,42.66,0,0,1,24.13,6.94A47.16,47.16,0,0,1,636,107.31q6,12.52,6,28.89t-6,28.59a45.31,45.31,0,0,1-16.47,18.85,44.08,44.08,0,0,1-24.13,6.63,41.58,41.58,0,0,1-22.48-6,29.33,29.33,0,0,1-12.94-16.78l2.48-3.93v69.81Zm55.31-66.91q11.61,0,17.82-7.77t6.21-22.48q0-14.7-6.31-23t-17.72-8.29q-11.81,0-18,8t-6.21,22.89q0,14.91,6.21,22.79T586.44,166.45Z"/><path class="cls-2" d="M700,190.27a44.67,44.67,0,0,1-24.24-6.63,43.74,43.74,0,0,1-16.36-18.85q-5.8-12.22-5.8-28.59t5.9-28.89a46.51,46.51,0,0,1,16.37-19.48A42.69,42.69,0,0,1,700,80.89a40.62,40.62,0,0,1,22.37,6.22,31.12,31.12,0,0,1,13.26,16.78l-2.49,1.65v-22H764v105H733.1V167.07l2.49.41a30.15,30.15,0,0,1-13.26,16.78A41.69,41.69,0,0,1,700,190.27Zm9.11-23.82q11.4,0,17.72-7.87t6.31-22.79q0-14.91-6.31-22.89t-17.72-8q-11.39,0-17.91,8.29t-6.53,23q0,14.72,6.32,22.48T709.07,166.45Z"/><path class="cls-4" d="M198,127.63c1.41,91.23-142.28,91.16-140.68,0C57.46,116.92,64,95.5,69.77,96c-16.64-1.47,15.69-3.79,20.45-17.08,1.37-3.79,3-9,6.43-11.16,4.47-2.79,11.19-3.47,16.23-.85,7,2.54,7.13,3.75,20.12-5.58,14.38-10.31,21.76,5.85,28.75,12.52C189,74.79,197.71,102.63,198,127.63Z"/><path class="cls-5" d="M91.48,88.59c-2.64-2.38-3.42-5.47-4-8.45a5.9,5.9,0,0,0-10-3l-6.13,6.13-6.13,6.13a5.9,5.9,0,0,0,3,10c3,.6,6.07,1.38,8.45,4,6.1,6.73,1.29,37.21,28.87,55.79s36.94,11.16,44.9,3.21,15.4-17.32-3.21-44.9S98.21,94.69,91.48,88.59Z"/><path class="cls-2" d="M205.69,127.62a12.59,12.59,0,0,1,12.43,14.58,91.66,91.66,0,0,1-181,0,12.59,12.59,0,0,1,12.43-14.58Z"/></g></g></svg>